<svg width="17" height="16" viewBox="0 0 17 16" fill="none" xmlns="http://www.w3.org/2000/svg">
<path d="M8.09705 0.247393C8.1343 0.173116 8.19183 0.110592 8.26317 0.066878C8.3345 0.0231641 8.4168 0 8.50076 0C8.58473 0 8.66702 0.0231641 8.73836 0.066878C8.80969 0.110592 8.86723 0.173116 8.90448 0.247393L10.8678 4.17271C10.9971 4.43108 11.1881 4.6546 11.4242 4.8241C11.6603 4.9936 11.9346 5.10401 12.2234 5.14587L16.6141 5.78009C16.6973 5.79199 16.7755 5.82663 16.8398 5.88009C16.9041 5.93355 16.9519 6.00371 16.9779 6.08261C17.0039 6.16152 17.007 6.24604 16.9869 6.3266C16.9668 6.40716 16.9242 6.48055 16.864 6.53848L13.6887 9.59048C13.4793 9.79191 13.3226 10.0405 13.2321 10.315C13.1417 10.5895 13.1201 10.8815 13.1694 11.166L13.919 15.478C13.9337 15.5601 13.9247 15.6446 13.8931 15.7219C13.8615 15.7992 13.8085 15.8661 13.7402 15.9151C13.6718 15.9641 13.5909 15.9931 13.5067 15.9989C13.4225 16.0047 13.3383 15.987 13.2637 15.9478L9.33879 13.9109C9.08017 13.7769 8.79244 13.7069 8.50034 13.7069C8.20824 13.7069 7.92051 13.7769 7.66189 13.9109L3.73779 15.9478C3.66328 15.9868 3.57919 16.0043 3.4951 15.9984C3.411 15.9925 3.33027 15.9634 3.26209 15.9145C3.1939 15.8655 3.141 15.7987 3.10941 15.7215C3.07781 15.6444 3.06878 15.56 3.08335 15.478L3.83213 11.1668C3.8816 10.8822 3.86017 10.59 3.7697 10.3153C3.67923 10.0407 3.52243 9.79195 3.31283 9.59048L0.137517 6.53932C0.0768276 6.48146 0.0338209 6.40794 0.0133966 6.32713C-0.00702771 6.24633 -0.0040485 6.16148 0.0219947 6.08226C0.0480379 6.00305 0.0960981 5.93264 0.160701 5.87907C0.225303 5.8255 0.30385 5.79091 0.387395 5.77925L4.77725 5.14587C5.06644 5.10434 5.34108 4.99407 5.57752 4.82455C5.81397 4.65503 6.00514 4.43133 6.13458 4.17271L8.09705 0.247393Z" fill="#121212"/>
</svg>
