<svg width="36" height="37" viewBox="0 0 36 37" fill="none" xmlns="http://www.w3.org/2000/svg">
<g clip-path="url(#clip0_383_13462)">
<path d="M35.55 18.0666C35.55 8.374 27.6926 0.516602 18 0.516602C8.30742 0.516602 0.450012 8.374 0.450012 18.0666C0.450012 27.7592 8.30742 35.6166 18 35.6166C27.6926 35.6166 35.55 27.7592 35.55 18.0666Z" fill="white"/>
<mask id="mask0_383_13462" style="mask-type:luminance" maskUnits="userSpaceOnUse" x="9" y="9" width="18" height="19">
<path d="M27 9.06641H9V27.0664H27V9.06641Z" fill="white"/>
</mask>
<g mask="url(#mask0_383_13462)">
<path d="M26.64 18.2711C26.64 17.6329 26.5828 17.0193 26.4764 16.4302H18V19.9116H22.8436C22.635 21.0366 22.001 21.9897 21.0478 22.6279V24.8861H23.9564C25.6582 23.3193 26.64 21.012 26.64 18.2711Z" fill="#4285F4"/>
<path d="M18 27.0664C20.43 27.0664 22.4672 26.2604 23.9563 24.8859L21.0477 22.6277C20.2418 23.1677 19.2109 23.4868 18 23.4868C15.6559 23.4868 13.6718 21.9036 12.9641 19.7764H9.95724V22.1082C11.4382 25.0496 14.4818 27.0664 18 27.0664Z" fill="#34A853"/>
<path d="M12.9641 19.7762C12.7841 19.2362 12.6818 18.6594 12.6818 18.0662C12.6818 17.473 12.7841 16.8962 12.9641 16.3562V14.0244H9.95724C9.34776 15.2394 9 16.614 9 18.0662C9 19.5185 9.34776 20.893 9.95724 22.108L12.9641 19.7762Z" fill="#FBBC04"/>
<path d="M18 12.646C19.3213 12.646 20.5077 13.1 21.4404 13.9918L24.0218 11.4105C22.4632 9.95822 20.4259 9.06641 18 9.06641C14.4818 9.06641 11.4382 11.0832 9.95724 14.0246L12.9641 16.3564C13.6718 14.2292 15.6559 12.646 18 12.646Z" fill="#E94235"/>
</g>
<path d="M35.55 18.0666C35.55 8.374 27.6926 0.516602 18 0.516602C8.30742 0.516602 0.450012 8.374 0.450012 18.0666C0.450012 27.7592 8.30742 35.6166 18 35.6166C27.6926 35.6166 35.55 27.7592 35.55 18.0666Z" stroke="#747775"/>
</g>
<defs>
<clipPath id="clip0_383_13462">
<rect width="36" height="36" fill="white" transform="translate(0 0.0664062)"/>
</clipPath>
</defs>
</svg>
