<?xml version="1.0" standalone="no"?>
<!DOCTYPE svg PUBLIC "-//W3C//DTD SVG 20010904//EN"
 "http://www.w3.org/TR/2001/REC-SVG-20010904/DTD/svg10.dtd">
<svg version="1.0" xmlns="http://www.w3.org/2000/svg"
 width="980.000000pt" height="920.000000pt" viewBox="0 0 980.000000 920.000000"
 preserveAspectRatio="xMidYMid meet">

<g transform="translate(0.000000,920.000000) scale(0.100000,-0.100000)"
fill="#000000" stroke="none">
<path d="M4500 9179 c-1664 -117 -3138 -901 -3914 -2082 -324 -494 -498 -964
-568 -1537 -17 -135 -16 -563 0 -700 85 -702 357 -1319 831 -1888 236 -282
568 -582 873 -789 l97 -66 8 -66 c12 -102 9 -328 -6 -411 -84 -475 -462 -947
-1021 -1273 -52 -30 -116 -65 -142 -78 l-48 -23 0 -128 0 -128 74 0 c209 0
690 38 955 76 977 139 1770 501 2391 1092 l106 100 124 -14 c944 -101 1925 27
2775 364 1392 551 2373 1585 2674 2820 177 724 92 1505 -238 2197 -492 1030
-1473 1839 -2733 2257 -460 152 -937 243 -1458 278 -168 11 -612 11 -780 -1z"/>
</g>
</svg>
