<svg width="40" height="40" viewBox="0 0 40 40" fill="none" xmlns="http://www.w3.org/2000/svg">
<circle cx="20" cy="20" r="19.5" fill="#FAFAFA" stroke="#C8C8C8"/>
<path d="M28 30.2857V27.9999C28 26.7875 27.5184 25.6248 26.6611 24.7675C25.8038 23.9102 24.641 23.4285 23.4286 23.4285H16.5714C15.359 23.4285 14.1962 23.9102 13.3389 24.7675C12.4816 25.6248 12 26.7875 12 27.9999V30.2857M24.5714 14.2857C24.5714 16.8104 22.5247 18.8571 20 18.8571C17.4753 18.8571 15.4286 16.8104 15.4286 14.2857C15.4286 11.7609 17.4753 9.71423 20 9.71423C22.5247 9.71423 24.5714 11.7609 24.5714 14.2857Z" stroke="black" stroke-linecap="round" stroke-linejoin="round"/>
</svg>
