<svg width="40" height="40" viewBox="0 0 40 40" fill="none" xmlns="http://www.w3.org/2000/svg">
<circle cx="20" cy="20" r="19.5" fill="#FAFAFA" stroke="#C8C8C8"/>
<path d="M10 15L14.41 10.59C14.5961 10.4028 14.8173 10.2543 15.061 10.1531C15.3047 10.0518 15.5661 9.99979 15.83 10H24.17C24.4339 9.99979 24.6953 10.0518 24.939 10.1531C25.1827 10.2543 25.4039 10.4028 25.59 10.59L30 15M10 15H30M10 15V18C10 18.5304 10.2107 19.0391 10.5858 19.4142C10.9609 19.7893 11.4696 20 12 20M30 15V18C30 18.5304 29.7893 19.0391 29.4142 19.4142C29.0391 19.7893 28.5304 20 28 20M12 20V28C12 28.5304 12.2107 29.0391 12.5858 29.4142C12.9609 29.7893 13.4696 30 14 30H26C26.5304 30 27.0391 29.7893 27.4142 29.4142C27.7893 29.0391 28 28.5304 28 28V20M12 20C12.5843 19.9678 13.1423 19.7467 13.59 19.37C13.7093 19.2838 13.8528 19.2374 14 19.2374C14.1472 19.2374 14.2907 19.2838 14.41 19.37C14.8577 19.7467 15.4157 19.9678 16 20C16.5843 19.9678 17.1423 19.7467 17.59 19.37C17.7093 19.2838 17.8528 19.2374 18 19.2374C18.1472 19.2374 18.2907 19.2838 18.41 19.37C18.8577 19.7467 19.4157 19.9678 20 20C20.5843 19.9678 21.1423 19.7467 21.59 19.37C21.7093 19.2838 21.8528 19.2374 22 19.2374C22.1472 19.2374 22.2907 19.2838 22.41 19.37C22.8577 19.7467 23.4157 19.9678 24 20C24.5843 19.9678 25.1423 19.7467 25.59 19.37C25.7093 19.2838 25.8528 19.2374 26 19.2374C26.1472 19.2374 26.2907 19.2838 26.41 19.37C26.8577 19.7467 27.4157 19.9678 28 20M23 30V26C23 25.4696 22.7893 24.9609 22.4142 24.5858C22.0391 24.2107 21.5304 24 21 24H19C18.4696 24 17.9609 24.2107 17.5858 24.5858C17.2107 24.9609 17 25.4696 17 26V30" stroke="black" stroke-linecap="round" stroke-linejoin="round"/>
</svg>
